<svg id="logo_" data-name="logo " xmlns="http://www.w3.org/2000/svg" xmlns:xlink="http://www.w3.org/1999/xlink" width="316.656" height="83" viewBox="0 0 316.656 83">
  <defs>
    <style>
      .cls-1 {
        fill: #fff;
        filter: url(#filter);
      }

      .cls-1, .cls-2, .cls-3 {
        fill-rule: evenodd;
      }

      .cls-2, .cls-3 {
        fill: #f5c506;
      }

      .cls-2 {
        opacity: 0.5;
      }
    </style>
    <filter id="filter" x="232" y="59.594" width="224.656" height="33.406" filterUnits="userSpaceOnUse">
      <feOffset result="offset" dy="2" in="SourceAlpha"/>
      <feGaussianBlur result="blur"/>
      <feFlood result="flood" flood-opacity="0.42"/>
      <feComposite result="composite" operator="in" in2="blur"/>
      <feBlend result="blend" in="SourceGraphic"/>
    </filter>
  </defs>
  <path id="TheYalow" class="cls-1" d="M241.445,90l5.267-26.518h10.547l0.621-3.147H232.626L232,63.482h10.519L237.256,90h4.189Zm19.131,0,2.769-13.99h14.14L274.707,90H278.9l5.893-29.664H280.6l-2.488,12.527H263.967l2.48-12.527h-4.168L256.387,90h4.189ZM304.4,90l0.621-3.147H291.777L293.91,76.11h10.15L304.66,73H294.528l1.891-9.521H308.81l0.622-3.147H292.855L286.963,90H304.4Zm16.244,0,2.637-13.379,12.867-16.285h-4.184l-9.91,12.48-5.283-12.48h-4.535l6.873,16.305L316.456,90h4.189Zm15.605,0,4.353-7.637h12.751L354.889,90h4.25L353.4,60.336h-4.207L332.12,90h4.13Zm13.779-24.172,2.753,13.389H342.4ZM381.838,90l0.641-3.147H368.632l5.247-26.518h-4.168L363.818,90h18.02Zm25.515-2.024A19.919,19.919,0,0,0,413.8,80.59a20.833,20.833,0,0,0,2.4-9.751q0-5.311-2.957-8.278a10.8,10.8,0,0,0-8.007-2.966,15.783,15.783,0,0,0-9.2,2.816,19.863,19.863,0,0,0-6.424,7.406,20.925,20.925,0,0,0-2.355,9.681q0,5.352,2.976,8.3a10.7,10.7,0,0,0,7.867,2.946A15.98,15.98,0,0,0,407.353,87.976Zm-13.71-2.746a9.22,9.22,0,0,1-1.914-5.993,19.19,19.19,0,0,1,1.894-8.228,15.612,15.612,0,0,1,4.79-6.153,10.163,10.163,0,0,1,6.083-2.115,6.424,6.424,0,0,1,5.352,2.385,9.338,9.338,0,0,1,1.884,5.973,19.082,19.082,0,0,1-1.894,8.2,15.933,15.933,0,0,1-4.76,6.163,10.166,10.166,0,0,1-6.194,2.135A6.378,6.378,0,0,1,393.643,85.23ZM427.748,90L437.8,67.531,438.446,90h4.124l14.1-29.664h-3.635L442.178,83.085l-0.656-22.749H437.59l-10.4,23.311-1.3-23.311h-3.927L423.563,90h4.185Z" transform="translate(-140 -28)"/>
  <path id="Shape_8_copy_4" data-name="Shape 8 copy 4" class="cls-2" d="M142.174,50.287l18.78-.713-0.125-18.794,8.019,7.668,0.126,18.795-18.781.712Zm12.17,11.638,18.78-.713L173,42.418l8.019,7.668,0.126,18.795-18.781.712Zm47.827,45.737-0.126-18.794,18.781-.714-8.019-7.668-18.782.713,0.127,18.794ZM190,96.024L189.875,77.23l18.781-.714-8.019-7.669-18.782.713,0.127,18.794Zm10.433-66.129,0.713,18.78,18.794-.126-7.668,8.019-18.795.126-0.712-18.781ZM188.8,42.065l0.713,18.781L208.3,60.72l-7.668,8.019-18.795.126-0.713-18.781ZM143.059,89.892l18.793-.126,0.714,18.781,7.668-8.019-0.713-18.782-18.794.127ZM154.7,77.722L173.49,77.6,174.2,96.377l7.669-8.019-0.714-18.782-18.794.127Z" transform="translate(-140 -28)"/>
  <path id="Shape_8_copy_3" data-name="Shape 8 copy 3" class="cls-3" d="M139.992,83l13.08-13.5L139.992,56h11.1l13.082,13.5L151.087,83H139.992Zm16.839,0,13.081-13.5L156.831,56h11.1l13.081,13.5L167.927,83h-11.1Zm66.177,0-13.08-13.5L223.008,56H211.913L198.831,69.5,211.913,83h11.1Zm-16.839,0L193.088,69.5,206.169,56h-11.1L181.992,69.5,195.073,83h11.1ZM168,27.992l13.5,13.08L195,27.992v11.1L181.5,52.169,168,39.087v-11.1Zm0,16.839,13.5,13.08L195,44.831v11.1L181.5,69.008,168,55.927v-11.1Zm0,66.177,13.5-13.08L195,111.008v-11.1L181.5,86.831,168,99.913v11.1Zm0-16.839,13.5-13.08L195,94.169v-11.1L181.5,69.992,168,83.073v11.1Z" transform="translate(-140 -28)"/>
</svg>
