<svg id="logo__footer" data-name="logo+_footer" xmlns="http://www.w3.org/2000/svg" xmlns:xlink="http://www.w3.org/1999/xlink" width="222.281" height="54" viewBox="0 0 222.281 54">
  <defs>
    <style>
      .cls-1 {
        fill: #fff;
        filter: url(#filter);
      }

      .cls-1, .cls-2, .cls-3 {
        fill-rule: evenodd;
      }

      .cls-2, .cls-3 {
        fill: #f5c506;
      }

      .cls-2 {
        opacity: 0.5;
      }
    </style>
    <filter id="filter" x="203.281" y="1805.47" width="159" height="24.53" filterUnits="userSpaceOnUse">
      <feOffset result="offset" dy="2" in="SourceAlpha"/>
      <feGaussianBlur result="blur"/>
      <feFlood result="flood" flood-opacity="0.42"/>
      <feComposite result="composite" operator="in" in2="blur"/>
      <feBlend result="blend" in="SourceGraphic"/>
    </filter>
  </defs>
  <path id="TheYalow" class="cls-1" d="M209.963,1827l3.727-18.77h7.464l0.44-2.22H203.722l-0.439,2.22h7.443L207,1827h2.964Zm13.539,0,1.959-9.9h10.007L233.5,1827h2.964l4.17-20.99h-2.964l-1.761,8.86H225.9l1.755-8.86h-2.95l-4.17,20.99H223.5Zm31.013,0,0.44-2.23h-9.373l1.51-7.6h7.182l0.425-2.2h-7.171l1.339-6.74h8.769l0.439-2.22h-11.73l-4.17,20.99h12.34Zm11.5,0,1.866-9.47,9.106-11.52h-2.961l-7.014,8.83-3.738-8.83h-3.209l4.863,11.54-1.877,9.45h2.964Zm11.043,0,3.08-5.4h9.024l1.086,5.4h3.007l-4.061-20.99h-2.978L274.131,1827h2.923Zm9.751-17.11,1.948,9.48H281.4Zm22.51,17.11,0.454-2.23h-9.8l3.713-18.76h-2.95l-4.17,20.99h12.752Zm18.056-1.43a14.142,14.142,0,0,0,4.56-5.23,14.738,14.738,0,0,0,1.7-6.9,7.932,7.932,0,0,0-2.092-5.86,7.642,7.642,0,0,0-5.667-2.1,11.164,11.164,0,0,0-6.51,2,13.95,13.95,0,0,0-4.546,5.24,14.794,14.794,0,0,0-1.667,6.85,7.893,7.893,0,0,0,2.107,5.87,7.564,7.564,0,0,0,5.567,2.08A11.34,11.34,0,0,0,327.371,1825.57Zm-9.7-1.95a6.514,6.514,0,0,1-1.355-4.24,13.6,13.6,0,0,1,1.341-5.82,11,11,0,0,1,3.39-4.35,7.178,7.178,0,0,1,4.305-1.5,4.535,4.535,0,0,1,3.787,1.69,6.588,6.588,0,0,1,1.333,4.22,13.573,13.573,0,0,1-1.34,5.81,11.3,11.3,0,0,1-3.369,4.36,7.236,7.236,0,0,1-4.383,1.51A4.506,4.506,0,0,1,317.669,1823.62ZM341.8,1827l7.112-15.9,0.458,15.9h2.919l9.978-20.99H359.7l-7.683,16.1-0.464-16.1h-2.782l-7.363,16.49-0.923-16.49H337.7l1.138,20.99H341.8Z" transform="translate(-140 -1789)"/>
  <path id="Shape_8_copy_4" data-name="Shape 8 copy 4" class="cls-2" d="M141.414,1803.5l12.219-.46-0.082-12.23,5.217,4.99,0.082,12.23-12.219.46Zm7.918,7.57,12.219-.46-0.082-12.23,5.217,4.99,0.082,12.23-12.219.46Zm31.117,29.76-0.082-12.23,12.219-.46-5.217-4.99-12.22.46,0.083,12.23Zm-7.918-7.57-0.082-12.23,12.219-.47-5.217-4.98-12.22.46,0.083,12.23Zm6.787-43.03,0.464,12.22,12.228-.08-4.989,5.22-12.228.08-0.464-12.22Zm-7.571,7.92,0.463,12.22,12.228-.08-4.989,5.21-12.228.09-0.464-12.22Zm-29.757,31.12,12.227-.09,0.464,12.22,4.99-5.21-0.464-12.22-12.228.08Zm7.572-7.92,12.227-.08,0.464,12.22,4.989-5.22-0.464-12.22-12.227.08Z" transform="translate(-140 -1789)"/>
  <path id="Shape_8_copy_3" data-name="Shape 8 copy 3" class="cls-3" d="M140,1824.78l8.51-8.78-8.51-8.78h7.218l8.511,8.78-8.511,8.78H140Zm10.955,0,8.511-8.78-8.511-8.78h7.219l8.511,8.78-8.511,8.78H150.95Zm43.055,0L185.5,1816l8.51-8.78h-7.219l-8.51,8.78,8.51,8.78h7.219Zm-10.956,0-8.51-8.78,8.51-8.78h-7.218L167.32,1816l8.511,8.78h7.218Zm-24.829-35.79,8.78,8.51,8.78-8.51v7.22l-8.78,8.51-8.78-8.51v-7.22Zm0,10.96,8.78,8.51,8.78-8.51v7.22l-8.78,8.51-8.78-8.51v-7.22Zm0,43.06,8.78-8.51,8.78,8.51v-7.22l-8.78-8.51-8.78,8.51v7.22Zm0-10.96,8.78-8.51,8.78,8.51v-7.22l-8.78-8.51-8.78,8.51v7.22Z" transform="translate(-140 -1789)"/>
</svg>
