<svg xmlns="http://www.w3.org/2000/svg"><defs><style>.cls-1{fill-rule:evenodd}</style><style>.cls-1{fill-rule:evenodd}</style><style>.cls-1{fill-rule:evenodd}</style><style>.cls-1{fill-rule:evenodd}</style><style>.cls-1{fill-rule:evenodd}</style></defs><symbol id="icon-about-sprite" viewBox="0 0 21 19"><path class="cls-1" d="M746 101l3.545-5.182h13.964L767 101h-21zm10.527-6.046c-2.892 0-5.236-3.184-5.236-6.046v-1.726a5.237 5.237 0 0110.473 0v1.727c0 2.862-2.345 6.045-5.237 6.045z" transform="translate(-746 -82)"/></symbol><symbol id="icon-contact-sprite" viewBox="0 0 24 18"><path class="cls-1" d="M1053.74 99.3l-8.28-8.276 6.12-6.125 2.18-2.17a1.466 1.466 0 01.24.772v15a1.476 1.476 0 01-.26.799zm-2.69-14.932l-2.79 2.794-5.35 5.346-.93.939-9.03-9.031-1.5-1.5-.69-.689a1.427 1.427 0 01.74-.227h21a1.5 1.5 0 01.72.207l-.76.755zm-20.14-.923l7.56 7.555-8.24 8.244a1.468 1.468 0 01-.23-.744v-15a1.467 1.467 0 01.23-.744l.68.689zm8.09 8.085l.32.317.11.113 1.03 1.031 1.5 1.5.06-.063.02.016 1.41-1.406 1.48-1.484 8.26 8.258a1.482 1.482 0 01-.69.188h-21a1.428 1.428 0 01-.74-.226z" transform="translate(-1030 -82)"/></symbol><symbol id="icon-next-sprite" viewBox="0 0 13 19"><path id="Shape_1_copy" data-name="Shape 1 copy" class="cls-1" d="M1291.99 327.2l-2.96 2.985h-.01l-6.29 6.333a2.1 2.1 0 01-2.81-.129 2.119 2.119 0 01-.28-2.734l6.28-6.314-6.6-6.039s-.79-1.762.19-2.764 2.77-.22 2.77-.22l6.6 6.042.02-.02z" transform="translate(-1279 -318)"/></symbol><symbol id="icon-previous-sprite" viewBox="0 0 13 19"><path class="cls-1" d="M8.013 328.2l2.961 2.984 6.3 6.333a2.088 2.088 0 002.8-.129 2.11 2.11 0 00.283-2.734l-6.277-6.314 6.6-6.039s.792-1.762-.19-2.764-2.771-.22-2.771-.22l-6.6 6.042-.02-.02z" transform="translate(-8 -319)"/></symbol><symbol id="icon-services-sprite" viewBox="0 0 19 19"><path class="cls-1" d="M907.958 83.578a2.444 2.444 0 103.46 3.453l1.4-1.4a4.817 4.817 0 01.182 1.252 4.831 4.831 0 01-6.16 4.7c-.014.014-.018.034-.032.048l-8.65 8.632a2.444 2.444 0 01-3.46-3.453l8.65-8.633c.015-.015.035-.019.05-.033a4.829 4.829 0 015.96-5.961zm-11.473 14.293a.61.61 0 10.612.61.611.611 0 00-.612-.61z" transform="translate(-894 -82)"/></symbol></svg>